<?xml version="1.0" encoding="UTF-8" standalone="no"?>
<!-- Created with Inkscape (http://www.inkscape.org/) -->

<svg
   width="220.76944mm"
   height="199.49516mm"
   viewBox="0 0 220.76944 199.49516"
   version="1.1"
   id="svg5"
   inkscape:version="1.1.2 (b8e25be833, 2022-02-05)"
   sodipodi:docname="VisGraph.svg"
   xmlns:inkscape="http://www.inkscape.org/namespaces/inkscape"
   xmlns:sodipodi="http://sodipodi.sourceforge.net/DTD/sodipodi-0.dtd"
   xmlns="http://www.w3.org/2000/svg"
   xmlns:svg="http://www.w3.org/2000/svg">
  <sodipodi:namedview
     id="namedview7"
     pagecolor="#505050"
     bordercolor="#eeeeee"
     borderopacity="1"
     inkscape:pageshadow="0"
     inkscape:pageopacity="0"
     inkscape:pagecheckerboard="0"
     inkscape:document-units="mm"
     showgrid="false"
     inkscape:zoom="0.35355339"
     inkscape:cx="236.17366"
     inkscape:cy="181.01934"
     inkscape:window-width="1920"
     inkscape:window-height="1046"
     inkscape:window-x="-11"
     inkscape:window-y="-11"
     inkscape:window-maximized="1"
     inkscape:current-layer="layer1" />
  <defs
     id="defs2" />
  <g
     inkscape:label="Ebene 1"
     inkscape:groupmode="layer"
     id="layer1"
     transform="translate(-5.1408027,-42.306313)">
    <g
       id="g7182">
      <path
         style="fill:#1d8f9f;fill-opacity:1;stroke-width:0.264583"
         d="m 88.752482,241.73809 c -1.282435,-0.1886 -4.728903,-0.93416 -6.925023,-1.95539 -2.19612,-1.02123 -3.97786,-2.83193 -4.45319,-2.90921 -0.47533,-0.0773 -0.17912,-0.003 -0.47533,-0.0773 -0.29621,-0.0743 -0.221865,-0.20928 -2.22622,0.21116 -2.004355,0.42044 -6.302525,0.76927 -9.79879,0.2945 -3.496265,-0.47477 -6.25077,-1.58278 -6.80126,-1.76114 l -0.54102,-0.17529 c -0.887869,-0.28767 -4.469887,-1.83443 -4.74383,-1.96355 l -0.20368,-0.096 c -0.30466,-0.14359 -4.45429,-2.29088 -4.31832,-2.51085 l -2.80239,-1.88571 c -1.00308,-0.83983 -1.22524,-1.19401 -1.14153,-1.32947 0.08371,-0.13546 0.151635,-0.24613 -0.0659,-0.18089 -0.217535,0.0652 -1.67331,-0.94219 -1.67331,-1.17344 0,-0.23125 0.135415,-0.16409 0.46302,0.0838 0.327605,0.24789 0.362115,0.23771 0.11906,-0.0337 -0.243055,-0.27141 -0.486835,-0.38933 -0.66146,-0.39614 -0.174625,-0.007 -0.28479,-0.16428 -0.2448,-0.35039 0.03999,-0.18611 -0.03768,-0.27017 -0.17257,-0.18678 -0.13489,0.0834 0.448625,0.95793 -1.55419,-1.3694 -2.002815,-2.32733 -6.264715,-10.26826 -6.93049,-12.89807 -0.665775,-2.62981 0.539065,-0.72825 -1.4685,-1.54938 -3.462264,-2.14903 -8.506873,-5.75793 -10.09754,-7.39305 -3.284239,-2.60887 -1.641475,-4.08967 -3.26809,-4.28487 -0.195815,0.12102 -0.9016,-0.45114 -2.75428,-4.36751 -1.85268,-3.91637 -3.126855,-14.60123 -2.7064,-17.39353 0.578555,-2.72013 0.471725,-2.06477 -0.96203,-3.43959 -0.86857,-0.84791 -2.7767604,-1.77401 -5.6169404,-8.50834 -2.84018,-6.73433 -1.65611,-26.32531 1.8747,-32.30645 1.6361754,-4.64564 2.6495284,-2.23437 2.3767804,-3.13112 1.234711,-1.43037 2.653235,-3.3446 3.31386,-4.16975 0.178165,-0.21468 0.135445,-0.90701 -0.44915,-3.19934 -0.584595,-2.29233 -0.729635,-2.97653 -0.72511,-6.96233 0.0045,-3.9858 0.47052,-6.8497 1.60495,-10.44081 1.13443,-3.59111 2.730195,-6.519767 3.02152,-6.339722 0.291325,0.180045 0.34024,0.237375 0.11947,-0.11984 -0.22077,-0.357215 2.47805,-4.571445 2.7689,-4.3917 0.29085,0.179745 0.295885,0.0064 0.40832,-0.17575 0.112435,-0.18211 0.263205,-0.35411 -0.11401,-0.12099 -0.377215,0.23312 -0.09629,-0.44009 0.64083,-1.33965 0.73712,-0.89956 1.065725,-1.08101 1.23151,-0.97855 0.165785,0.10246 0.282635,0.17211 0.0862,-0.14571 -0.196435,-0.31782 2.999245,-3.512735 3.3166,-3.3166 0.317355,0.196135 0.399595,0.32457 0.14703,-0.0841 -0.252565,-0.40867 7.609595,-5.42597 8.56043,-5.46041 0.950835,-0.03444 0.69227,-0.10643 0.63256,-0.20373 -0.05971,-0.0973 0.07532,-0.21731 0.649,-0.34331 0.57368,-0.126 0.719075,0.06513 1.18472,-2.73351 0.465645,-2.79864 1.34805,-5.60695 2.5582,-8.12336 1.21015,-2.51641 3.73306,-6.014445 3.89842,-5.84908 0.16536,0.165365 0.04863,0.27401 -0.22068,0.61717 -0.26931,0.34316 -0.24637,0.37362 0.10057,0.10133 0.34694,-0.27229 0.468135,-0.370775 0.32624,-0.81785 -0.141895,-0.447075 3.186325,-4.10344 6.83868,-6.48417 4.262134,-2.108607 14.372678,-6.306589 18.90884,-4.68936 0.58198,0.202875 0.82936,0.332265 0.66963,-0.084 -0.15973,-0.416265 4.018435,-4.422355 5.80122,-5.6111 1.782785,-1.188745 1.59749,-1.15248 3.70417,-2.15732 2.10668,-1.00484 8.904183,-2.7762 9.990123,-2.61684 1.433414,-0.363291 3.176765,0.03562 3.71514,-0.01431 1.27605,-0.12169 8.794878,1.72397 8.572408,2.08395 -0.22247,0.35998 -0.13253,0.24015 0.19133,0.11964 0.32386,-0.12051 3.12753,1.49966 2.98566,1.72923 -0.14187,0.22957 -0.13016,0.24142 0.19636,0.11613 0.32652,-0.12529 2.90058,1.895605 4.4309,3.96712 1.53032,2.071515 3.34361,6.326275 3.53784,7.81548 0.49636,25.986745 0.56928,56.406082 0.5708,82.332942 0,38.33039 0.59834,78.43397 0,80.78267 -0.59834,2.3487 -0.23055,0.90496 -0.59834,2.3487 -0.36779,1.44374 -2.6859,6.8249 -3.00678,6.62659 -0.32088,-0.19831 -0.51215,-0.51557 -0.1304,0.10211 0.38175,0.61768 -7.1957,8.21325 -7.81696,7.82929 -0.62126,-0.38396 -0.29998,-0.18212 -0.10965,0.12584 0.19033,0.30796 -3.549248,2.10319 -5.863928,2.69518 -2.31468,0.59199 -7.092845,0.73171 -7.87394,0.61684 -0.781095,-0.11487 1.282475,0.18866 4e-5,6e-5 z M 78.303019,223.15245 c 0.570455,-0.57046 1.63384,-4.20138 1.62865,-6.87183 -0.0052,-2.67045 -0.04593,-3.32997 -0.42031,-5.6027 -0.37438,-2.27273 -0.930295,-5.59114 -0.0134,-9.48046 0.916895,-3.88932 9.005833,-15.33102 12.913503,-17.88001 3.90767,-2.54899 2.845075,-3.75649 1.49689,-4.98485 -1.348185,-1.22836 0.103467,-1.98303 -3.77559,-0.0341 -3.879057,1.94893 -14.456683,15.67693 -15.826293,20.87007 -1.36961,5.19314 -1.040745,7.73248 -0.41943,11.37709 0.621315,3.64461 0.81575,5.67047 0.44573,8.46614 -0.37002,2.79567 -0.300865,3.66132 0.86693,4.37336 1.167795,0.71204 2.653825,0.21685 3.10335,-0.23268 0.449525,-0.44952 -0.570485,0.57042 -3e-5,-3e-5 z m -38.10158,-0.4036 c 0,-0.0275 -0.125865,-0.19861 -0.46302,-0.46302 -0.337155,-0.26441 -0.437275,-0.33029 -0.0999,0.0999 0.337375,0.43019 0.56291,0.47201 0.56291,0.36312 0,-0.10888 1e-5,0.0274 1e-5,0 z m -1.05834,-1.5875 c 0,-0.13634 -0.12587,-0.19861 -0.46302,-0.46302 -0.33715,-0.26441 -0.437275,-0.33029 -0.0999,0.0999 0.337375,0.43019 0.56292,0.49945 0.56292,0.36312 z m 8.01993,-13.91201 c 0.47277,-0.56186 0.518105,0.35255 0.83195,-2.18281 0.313845,-2.53536 1.530865,-6.63281 3.37404,-8.85379 1.843175,-2.22098 3.36861,-3.11925 7.08478,-4.94129 3.71617,-1.82204 4.36309,-2.4013 5.5866,-3.6056 1.22351,-1.2043 1.218625,-0.66653 2.44386,-3.09209 1.225235,-2.42556 1.911015,-13.01412 1.19609,-15.65195 -0.714925,-2.63783 -0.30216,-0.26448 1.51647,-1.00313 1.81863,-0.73866 6.756,-4.75103 9.10392,-7.51078 2.34792,-2.75975 1.952193,-2.63252 4.24793,-4.42301 2.295737,-1.79049 4.193083,-3.7731 3.249663,-5.37017 -0.94342,-1.59708 -2.065448,-1.70772 -4.331823,-0.49975 -2.266375,1.20797 -4.1727,2.70207 -7.22436,6.4124 -3.05166,3.71033 -6.752365,6.27575 -9.63054,6.95263 -2.878175,0.67687 -2.409555,1.01865 -7.7738,-0.43287 -5.364245,-1.45153 -11.474695,-2.13347 -15.91069,0.1881 -4.435995,2.32157 -8.910095,10.27706 -8.92219,13.19917 -0.01209,2.92211 0.422855,2.16951 1.91265,2.73393 1.489795,0.56442 2.64624,-0.30471 3.75497,-3.63393 1.10873,-3.32922 4.134155,-6.44993 6.40552,-7.59186 2.271365,-1.14194 1.841335,-0.77658 4.19316,-0.76561 2.351825,0.011 3.72841,0.32718 6.35,1.08968 2.62159,0.76249 5.177695,1.31475 5.73662,1.4048 0.558925,0.09 1.572796,-0.12443 2.03246,0.32744 0.459664,0.45187 0.22652,1.26756 0.3182,1.78056 0.09168,0.513 0.34283,1.19326 0.19737,4.66297 -0.14546,3.46971 -2.27364,7.533 -7.22632,9.90562 -4.95268,2.37262 -5.903545,2.94297 -8.91604,6.65707 -3.012495,3.7141 -4.06898,13.92028 -2.65949,14.74123 1.40949,0.82095 0.7883,0.27252 1.4317,0.27774 0.6434,0.005 1.15453,-0.21284 1.6273,-0.7747 z m -14.54887,-59.5368 c 0.30952,-0.27176 0.7413,-0.35917 1.61041,-2.74213 0.86911,-2.38296 5.014265,-6.74655 7.40087,-7.4553 2.386605,-0.70875 4.423935,-0.41508 7.80032,0.0496 3.376385,0.46468 3.267395,0.45085 5.15937,0.12847 1.891975,-0.32238 5.43206,-2.09439 6.33352,-2.78643 0.90146,-0.69204 0.711089,-0.99314 1.27037,-0.97524 0.559281,0.0179 -0.325195,-0.28448 1.32157,1.15607 1.646765,1.44055 10.053955,5.73655 13.07103,5.73772 3.017075,0.001 4.09916,-1.76581 3.58561,-3.48981 -0.51355,-1.724 -1.00841,-1.87432 -4.27211,-2.57734 -3.2637,-0.70302 -6.94229,-2.43323 -9.24738,-4.7542 -2.30509,-2.32096 -3.749245,-5.25616 -5.02482,-10.11523 -1.275575,-4.85907 -1.16113,-5.21093 -3.54233,-8.54789 -2.3812,-3.33696 -10.00305,-8.1577 -13.83879,-8.7495 -3.83574,-0.5918 -4.33484,2.09468 -3.65048,3.73259 0.68436,1.63791 0.16756,1.21973 4.12669,2.22835 3.95913,1.00862 9.268915,6.09173 10.30514,8.72775 1.036225,2.63602 1.03652,3.22174 1.60421,5.38084 0.56769,2.1591 1.420775,4.80415 1.56818,5.13737 0.147405,0.33323 0.597193,0.85286 0.53601,1.21174 -0.06118,0.35888 -0.42658,0.45407 -0.58839,0.62631 -0.16181,0.17224 -0.8385,0.75145 -2.42145,1.54336 -1.58295,0.79192 -2.58141,1.26724 -7.77322,0.49009 -5.19181,-0.77715 -10.160655,0.51252 -13.79991,3.97914 -3.639255,3.46662 -5.3853,7.90892 -5.3853,10.022 0,2.11309 -0.06452,1.29188 0.82845,2.08975 0.89297,0.79787 2.461895,0.44407 3.02243,-0.0481 0.560535,-0.49217 -0.30952,0.27179 0,2e-5 z m 43.15027,-34.15148 c 1.56648,-1.37539 5.472265,-8.4746 6.4704,-11.70645 0.998135,-3.231851 1.42102,-4.767552 0.85576,-8.568102 -0.56526,-3.80055 -4.983965,-8.394915 -9.89014,-9.6245 -4.906175,-1.229585 -5.174725,-2.63747 -5.40237,-4.84314 -0.227645,-2.20567 0.426675,-3.71657 1.7912,-6.03512 1.364525,-2.31855 1.55514,-2.91826 0.26597,-4.20743 -1.28917,-1.28917 -2.64454,-1.72804 -5.40277,2.31756 -2.75823,4.0456 -2.25219,12.30848 0.12963,15.01438 2.38182,2.7059 2.70592,2.32906 6.69991,3.48141 3.99399,1.15235 6.079585,2.865945 6.3928,5.86262 0.313215,2.996675 -0.92634,6.499772 -3.38579,10.569252 -2.45945,4.06948 -3.015105,5.65891 -2.23262,7.17207 0.782485,1.51316 2.14154,1.94284 3.70802,0.56745 z m -37.7135,-35.836262 c -0.06258,-0.06222 0.177514,-0.492561 -0.003,-0.52917 -0.180514,-0.03661 -0.164855,0.38365 -0.22739,0.52917 -0.06253,0.14552 -0.21882,1.296455 -0.21557,1.5875 0.0033,0.291045 -0.343066,1.024011 0.0118,1.05833 0.354866,0.03432 0.15871,-0.767285 0.21891,-1.05833 0.0602,-0.291045 0.216485,-1.44198 0.21556,-1.5875 -9.25e-4,-0.14552 0.06227,0.06222 -3.1e-4,0 z m 0.47912,-2.82774 c -0.04225,-0.10553 -0.147755,-0.13371 -0.15985,0.15986 -0.0121,0.29357 0.05103,0.43517 0.13896,0.34726 0.08793,-0.08791 0.0591,-0.41162 0.0209,-0.50712 -0.0382,-0.0955 0.04224,0.10553 -1e-5,0 z m 3.35985,-7.24017 c 0.133145,-0.346915 0.04294,-0.339765 -0.10398,-0.24897 -0.14692,0.09079 -0.26156,0.151865 -0.26156,0.41062 0,0.258755 0.232395,0.185265 0.36554,-0.16165 z m 11.67113,-10.96344 c 0.0908,-0.14692 0.09795,-0.2371 -0.24896,-0.10398 -0.346915,0.13312 -0.42041,0.36554 -0.16165,0.36554 0.25876,0 0.31981,-0.11464 0.41061,-0.26156 z m 3.23751,-1.4858 c -0.04395,-0.04395 -0.30609,-0.10135 -0.50712,-0.0209 -0.20103,0.08045 -0.13372,0.147755 0.15985,0.15985 0.29357,0.0121 0.39123,-0.09503 0.34727,-0.13896 -0.04396,-0.04393 0.04395,0.04396 0,10e-6 z"
         id="path1054"
         sodipodi:nodetypes="zzszzzsssscczzzzzzzzzzccczcczccczzzzzzzzzzzzzzzzzzzzzzcczzzcczzzzzcczzzzzzzzzzzzzzzzzzzzzzzzzzzzzzzzzzzzzzzzzzzzzzzzzzzzzzzzzzzzzzzzzzzzzzzzzzzzzzzzzzzzzzzzzzzzzzzzzzzzzzzzzzzzzzzzzzzzzzzzzzzzzzzzzzzz" />
      <g
         id="g3245"
         transform="translate(152.82096,129.26434)"
         style="fill:#e7b83a;fill-opacity:1">
        <path
           style="fill:#e7b83a;fill-opacity:1;stroke-width:0.264583"
           d="m 37.566953,107.86341 -1.984374,-0.53214 -1.644576,-0.82886 -1.644573,-0.82886 -1.706462,-1.40757 -1.706462,-1.40757 -1.180796,-1.6663 -1.180795,-1.666306 -0.524942,-1.058333 -0.524941,-1.058334 -0.618098,-1.852083 -0.618101,-1.852083 -0.01286,-3.175 -0.01286,-3.175 0.481754,-1.563171 0.48175,-1.563174 0.604631,-1.253339 0.604631,-1.25334 L 14.683894,70.028174 2.9879066,58.334401 1.4258623,59.116039 -0.13618205,59.897676 -1.5913903,60.259001 -3.0465985,60.62033 -5.56014,60.60559 l -2.5135415,-0.01474 -2.1166665,-0.717918 -2.116666,-0.717915 -1.734981,-1.173041 -1.73498,-1.17304 -1.237408,-1.52718 -1.237409,-1.527181 -0.788828,-1.602337 -0.788828,-1.602341 -0.40206,-1.705798 -0.402046,-1.705797 -0.0039,-2.078477 -0.0039,-2.078474 0.416364,-1.606801 0.416364,-1.606799 0.666743,-1.315757 0.666744,-1.315754 -10.07894,-10.08149 -10.07894,-10.081492 V 12.207734 7.4422043 l 9.865229,-10.049864 9.865229,-10.0498643 -0.611627,-1.521174 -0.611628,-1.521171 -0.257769,-1.359213 -0.257769,-1.359209 v -2.024965 -2.024964 l 0.401614,-1.576943 0.401614,-1.576943 0.843778,-1.719792 0.843779,-1.719792 2.128045,-2.119653 2.128045,-2.119657 1.740037,-0.850889 1.74004,-0.850892 1.9152793,-0.402892 1.915279,-0.402891 h 1.6601703 1.6601703 l 2.0656099,0.528293 2.06560987,0.528294 1.20998713,0.676275 1.2099871,0.676275 3.7038198,-3.784256 3.7038193,-3.784256 7.760012,-7.81957 7.760012,-7.819572 -0.790872,-1.975101 -0.790868,-1.975104 -0.278196,-1.714701 -0.278194,-1.714701 -0.0021,-1.267926 -0.0021,-1.267925 0.405365,-2.039366 0.405366,-2.039366 1.040222,-2.116666 1.040226,-2.116667 1.007824,-1.316194 1.007827,-1.31619 1.58148,-1.282007 1.581481,-1.28201 2.116667,-1.017815 2.116666,-1.017815 2.083091,-0.452686 2.083093,-0.452686 2.547115,0.132532 2.547117,0.132533 1.719792,0.595151 1.719791,0.595151 1.5875,0.822725 1.5875,0.822727 2.280324,2.263621 2.280325,2.263624 1.102484,2.277729 1.102484,2.277729 0.419283,2.210274 0.419283,2.210273 -0.155848,1.984375 -0.155845,1.984375 -0.417065,1.5875 -0.417066,1.5875 -0.915527,1.857364 -0.915527,1.857365 -1.611341,1.785347 -1.611342,1.785347 -1.169299,0.8045 -1.169297,0.804498 -1.52191,0.755097 -1.521909,0.755099 -1.626963,0.421587 -1.626962,0.42159 -1.954784,0.16524 -1.954787,0.165238 -2.13738,-0.433089 -2.137381,-0.433088 -1.420098,-0.57907 -1.420101,-0.579072 -0.98693,-0.609788 -0.98693,-0.609791 H 31.81197 31.602957 L 20.297339,-39.567489 8.99172,-28.245167 v 0.289637 0.289636 l 0.7841218,1.683354 0.7841242,1.68335 0.305459,1.984375 0.305459,1.984375 -0.164957,1.719792 -0.164957,1.719791 -0.161589,0.594757 -0.161587,0.594754 7.108317,3.472233 7.108316,3.4722326 5.645827,2.7460336 5.64583,2.7460309 0.175003,-0.00712 0.175006,-0.00712 0.661458,-1.0755232 0.661459,-1.0755233 1.411083,-1.4359995 1.411087,-1.4359969 1.614627,-1.0964756 1.61463,-1.0964726 2.133661,-0.868016 2.133661,-0.868018 1.719791,-0.277374 1.719792,-0.27737 1.532509,-0.0021 1.532509,-0.0021 2.039366,0.403448 2.039365,0.40345 2.778125,1.357804 2.778125,1.3578043 2.669892,2.6705188 2.669889,2.6705162 1.235331,2.5135415 1.235335,2.5135416 0.526547,2.0928434 0.526547,2.0928462 v 2.6934767 2.6934773 l -0.535223,2.092846 -0.535223,2.092843 -0.77126,1.648238 -0.771263,1.648238 -0.861158,1.262179 -0.861158,1.262178 -1.602671,1.684647 -1.602668,1.684647 -1.455209,0.990704 -1.455208,0.990705 -1.373367,0.69459 -1.37337,0.694592 -2.066213,0.588375 -2.066216,0.588378 -3.042708,-0.0074 -3.042708,-0.0074 -2.116667,-0.594175 -2.116666,-0.594177 -1.606749,-0.790273 -1.606748,-0.790276 -1.900502,-1.447957 -1.900502,-1.447958 -7.605249,4.494014 -7.605249,4.494011 -6.614583,3.944561 -6.6145824,3.944562 0.038748,0.364805 0.038745,0.364805 0.4242754,1.576943 0.424272,1.576943 -0.0031,1.994932 -0.0031,1.994931 -0.354986,1.322917 -0.354989,1.322917 -0.6102504,1.411737 -0.6102482,1.411734 11.4778806,11.480157 11.477878,11.480154 0.536853,-0.39007 0.53685,-0.39007 1.316969,-0.69668 1.316971,-0.696679 1.461154,-0.513313 1.461156,-0.513313 2.513541,-0.139433 2.513542,-0.13943 1.975066,0.420741 1.975067,0.420737 1.935761,0.91929 1.935763,0.919289 1.546415,1.18994 1.546413,1.18994 1.056304,1.266592 1.056301,1.266592 0.809347,1.322916 0.809347,1.322917 0.725403,2.116667 0.725403,2.116666 0.005,2.910417 0.005,2.910416 -0.470858,1.719792 -0.470855,1.719791 -0.922544,1.892022 -0.922544,1.892023 -1.386847,1.67986 -1.386846,1.67985 -1.484291,1.11913 -1.484291,1.11914 -1.539785,0.77535 -1.539787,0.77535 -1.455209,0.44139 -1.455208,0.44139 -2.778125,0.11462 -2.778125,0.11462 -1.984374,-0.53214 z M 19.767971,24.882658 33.730495,16.517634 33.938434,16.327116 34.146373,16.136597 33.356758,13.778078 32.567144,11.419558 32.394482,9.6997668 32.221823,7.9799752 32.527771,6.3098327 32.833722,4.6396928 32.976954,4.2664372 33.120184,3.8931816 19.957037,-2.5962324 6.7938899,-9.0856489 H 6.70363 6.61337 l -1.6348655,1.3173894 -1.634863,1.3173895 -1.8836691,0.7841747 -1.8836692,0.784172 -2.1051942,0.2635938 -2.1051942,0.2635964 -1.9831022,-0.249383 -1.9831022,-0.2493804 -0.9273142,-0.295566 -0.9273142,-0.2955634 -1.53956,-0.8084449 -1.53956,-0.8084449 -9.511652,9.5054204 -9.511651,9.5054203 0.071,0.311507 0.071,0.311505 9.576964,9.422399 9.576964,9.4224 1.9019,-0.957784 1.901902,-0.957781 2.1214687,-0.400127 2.1214713,-0.400127 2.1423708,0.311269 2.14237344,0.311269 1.8520832,0.769943 1.85208316,0.769946 1.4552083,1.174212 1.4552082,1.174213 0.060391,0.01807 0.060391,0.01804 13.9625249,-8.365024 z"
           id="path3261" />
        <path
           style="fill:#e7b83a;fill-opacity:1;stroke-width:0.264583"
           d="m 38.228412,107.9978 -1.5875,-0.34947 -1.406451,-0.55853 -1.406451,-0.55853 -1.503965,-0.96064 -1.503966,-0.96064 -1.5875,-1.62932 -1.5875,-1.62931 -0.998958,-1.706528 -0.998958,-1.706528 -0.695965,-2.116666 -0.695966,-2.116667 -0.01751,-3.175 -0.01751,-3.175 0.479001,-1.576199 0.479005,-1.5762 0.619209,-1.221949 0.61921,-1.221951 L 14.701089,70.045354 2.9855518,58.332033 1.8472959,58.91273 l -1.13825597,0.580694 -1.08406398,0.384644 -1.08406135,0.38464 -2.0160799,0.254749 -2.0160798,0.254749 -1.8907018,-0.26815 -1.8907044,-0.26815 -1.8493637,-0.719505 -1.849362,-0.719506 -1.493418,-1.117028 -1.493418,-1.117031 -1.139249,-1.388824 -1.139248,-1.388825 -0.796362,-1.617641 -0.796363,-1.617644 -0.40206,-1.705798 -0.402059,-1.705797 -0.0039,-2.078477 -0.0039,-2.078474 0.416364,-1.606801 0.416364,-1.606799 0.666743,-1.315757 0.666744,-1.315754 -10.07894,-10.08149 -10.07894,-10.081492 0.0073,-4.761227 0.0073,-4.7612274 9.883333,-10.0541662 9.883334,-10.0541664 -0.380389,-0.743024 -0.380388,-0.743021 -0.514399,-2.011281 -0.514399,-2.01128 v -2.151044 -2.151046 l 0.408362,-1.56781 0.408363,-1.567807 0.820044,-1.665748 0.820045,-1.665748 1.549374,-1.690867 1.549375,-1.69087 1.418142,-0.941308 1.418142,-0.941311 2.045679,-0.686712 2.0456818,-0.686711 2.1815873,-0.153958 2.18159,-0.153956 2.0251524,0.450554 2.02515509,0.450554 1.52404751,0.773591 1.5240502,0.773594 4.7562316,-4.825936 4.7562341,-4.825937 6.731836,-6.793613 6.731838,-6.793613 -0.687911,-1.540762 -0.687912,-1.540761 -0.449199,-2.23203 -0.449199,-2.232033 0.173091,-2.075516 0.17309,-2.075518 0.647825,-2.042451 0.647824,-2.042451 0.998958,-1.713312 0.998958,-1.713312 1.726271,-1.726271 1.726272,-1.726271 1.713311,-0.998959 1.713312,-0.998958 2.116667,-0.677563 2.116666,-0.677564 2.515912,-0.144375 2.51591,-0.144375 2.222696,0.562073 2.222698,0.562073 1.946068,0.96157 1.946071,0.961572 1.810491,1.676236 1.810491,1.676238 1.093726,1.678718 1.09373,1.678718 0.655505,1.613209 0.655505,1.613212 0.319561,2.400171 0.319561,2.40017 -0.33283,2.174192 -0.33283,2.17419 -0.639175,1.69813 -0.639172,1.698127 -1.205397,1.813174 -1.205396,1.813174 -1.594702,1.443122 -1.594702,1.443122 -1.764776,0.92339 -1.764779,0.923391 -1.984375,0.604776 -1.984374,0.604774 -2.778125,0.0075 -2.778125,0.0075 -1.984375,-0.61228 -1.984375,-0.612281 -1.807069,-0.945613 -1.80707,-0.945612 -11.468964,11.466691 -11.4689674,11.466692 0.7954327,1.575742 0.7954327,1.575742 0.406662,2.14884 0.406662,2.148837 -0.151591,1.5875 -0.151593,1.5875 -0.176977,0.860732 -0.176977,0.860732 8.962927,4.39535 8.962926,4.3953485 3.806637,1.8215239 3.806639,1.8215212 h 0.185788 0.185788 l 0.295452,-0.6484487 0.295455,-0.6484488 1.891445,-1.9912011 1.891443,-1.9911985 1.664361,-1.0511393 1.664359,-1.0511362 1.666626,-0.677212 1.666626,-0.677212 2.122432,-0.430059 2.122432,-0.430059 2.257882,0.16709 2.257883,0.16709 1.455208,0.385889 1.455209,0.38589 2.513541,1.256688 2.513541,1.2566865 2.657663,2.6576601 2.65766,2.6576627 1.245674,2.5135416 1.245674,2.5135415 0.422805,1.5874999 0.422801,1.5875 0.139695,2.8461095 0.139692,2.8461095 -0.323019,1.6518067 -0.323022,1.651807 -0.794605,2.066078 -0.794604,2.066079 -1.302107,1.946809 -1.302105,1.946809 -1.945851,1.807946 -1.945852,1.807945 -1.481693,0.887574 -1.481696,0.887577 -1.549743,0.625969 -1.549747,0.62597 -2.490478,0.429784 -2.490477,0.429786 -1.986667,-0.176993 -1.986663,-0.176993 -1.473933,-0.372229 -1.473935,-0.372231 -1.436481,-0.582134 -1.436484,-0.582133 -1.719792,-1.132409 -1.719791,-1.132406 -0.839872,-0.690221 -0.839872,-0.690219 -4.451794,2.616017 -4.451795,2.61602 -9.789582,5.786657 -9.7895829,5.786657 -0.1042485,0.07646 -0.1042511,0.07646 0.5011265,1.527347 0.501123,1.527347 -0.01386,2.910417 -0.01386,2.910416 L 9.8058032,50.942221 8.9275903,53.15862 20.403,64.61676 l 11.475412,11.458143 1.715749,-1.049237 1.715749,-1.049234 1.723834,-0.545576 1.723834,-0.545573 2.249363,-0.140285 2.249363,-0.140285 2.058575,0.425723 2.058577,0.425722 1.90977,0.890125 1.909768,0.890124 1.641364,1.243841 1.641361,1.243838 1.301194,1.640453 1.301192,1.640451 0.808855,1.608656 0.808855,1.608659 0.46256,1.698633 0.462561,1.698635 -0.0074,2.645833 -0.0074,2.645834 -0.459465,1.715269 -0.459467,1.71527 -0.779322,1.570731 -0.77932,1.570728 -1.193191,1.672112 -1.193194,1.67211 -1.642295,1.33846 -1.642296,1.33846 -2.116666,1.05038 -2.116667,1.05038 -1.852083,0.38752 -1.852083,0.38751 -1.852083,-0.0164 -1.852083,-0.0164 -1.5875,-0.34947 z M 19.780496,24.887132 33.730495,16.52658 l 0.207939,-0.194993 0.207939,-0.19499 -0.782283,-2.358519 -0.782286,-2.35852 -0.173839,-1.7197912 -0.173839,-1.7197916 0.41724,-1.9843749 0.417237,-1.9843749 2.17e-4,-0.080698 2.17e-4,-0.080695 L 19.945326,-2.6179097 6.8216156,-9.0856489 H 6.7124221 6.6032286 l -1.4362588,1.1698498 -1.4362614,1.1698525 -1.676212,0.7999809 -1.67621207,0.7999836 -1.1832695,0.2726557 -1.18326683,0.2726584 -2.6076432,0.00646 -2.6076405,0.00648 -1.6256925,-0.4191502 -1.6256898,-0.4191529 -1.53956,-0.8180387 -1.53956,-0.818044 -9.506793,9.5040419 -9.506794,9.5040419 v 0.29781 0.297809 l 3.638021,3.500374 3.63802,3.500377 5.978907,5.950283 5.978906,5.950286 1.826301,-0.913054 1.8263019,-0.913053 1.4552082,-0.352353 1.4552082,-0.352354 1.8520832,0.0132 1.8520832,0.0132 1.6993075,0.441018 1.69931017,0.441021 1.59741113,0.811744 1.5974086,0.811745 1.068906,0.896644 1.068906,0.896646 0.072916,0.0052 0.072919,0.0052 13.9499959,-8.36055 z"
           id="path3259" />
        <path
           style="fill:#e7b83a;fill-opacity:1;stroke-width:0.264583"
           d="m 38.228412,108.01717 -1.5875,-0.36683 -1.190625,-0.47568 -1.190625,-0.47568 -1.509345,-0.88024 -1.509342,-0.88025 -1.692211,-1.6674 -1.692211,-1.6674 -1.082641,-1.832697 -1.08264,-1.832689 -0.662578,-1.988833 -0.66258,-1.988833 -0.167227,-2.376792 -0.16723,-2.376791 0.413332,-2.09459 0.413332,-2.09459 0.767866,-1.640887 L 26.39405,81.7361 14.690501,70.034768 2.9869541,58.333435 l -1.3586803,0.688494 -1.35867765,0.688493 -1.52579905,0.400251 -1.5257991,0.400249 -2.5135414,0.0092 -2.5135415,0.0092 -1.5631053,-0.419121 -1.5631058,-0.419121 -1.786446,-0.93875 -1.786447,-0.938752 -1.709641,-1.77088 -1.709642,-1.770883 -0.981353,-1.948706 -0.981354,-1.948709 -0.371004,-1.750293 -0.371004,-1.750293 -0.0046,-1.835179 -0.0046,-1.835179 0.431143,-1.736696 0.431144,-1.736695 0.651964,-1.296863 0.651964,-1.296866 -10.07894,-10.08149 -10.07894,-10.081492 V 12.244558 7.5158511 l 9.910295,-10.1091439 9.910295,-10.1091442 -0.521271,-1.053584 -0.521272,-1.053584 -0.388597,-1.834374 -0.388596,-1.834378 -0.0046,-1.946185 -0.0046,-1.946182 0.419414,-1.625693 0.419413,-1.625689 0.966678,-1.843792 0.966678,-1.843791 1.493429,-1.595792 1.493429,-1.595792 1.684542,-0.999193 1.684542,-0.999191 1.6840963,-0.52296 1.6840939,-0.522957 2.1523641,-0.157284 2.1523615,-0.157282 1.9402635,0.413023 1.94026353,0.413022 1.60772467,0.803392 1.6077246,0.803389 h 0.046979 0.046977 l 11.4484859,-11.645008 11.448488,-11.645008 -0.680643,-1.650304 -0.680643,-1.650304 -0.325729,-1.190625 -0.325726,-1.190625 0.01916,-2.910417 0.01916,-2.910416 0.687514,-2.116667 0.687512,-2.116666 0.998958,-1.700996 0.998958,-1.700993 1.754558,-1.73859 1.754558,-1.738587 1.483619,-0.890392 1.483622,-0.890394 2.318073,-0.818351 2.31807,-0.818349 3.174999,-0.01106 3.175,-0.01106 2.342848,0.767877 2.342846,0.767876 1.890487,1.240721 1.890485,1.240721 1.251736,1.348121 1.251736,1.348121 1.066199,1.649619 1.066199,1.649618 0.651764,2.063197 0.651764,2.063197 0.165005,2.058591 0.165007,2.05859 -0.520628,2.514725 -0.520629,2.514721 -0.869648,1.783601 -0.869648,1.783599 -1.410386,1.709872 -1.410382,1.709875 -1.392378,1.040244 -1.392377,1.040246 -1.32959,0.66494 -1.329592,0.664943 -1.95363,0.593397 -1.953633,0.593397 -2.669902,0.02029 -2.669902,0.02029 -2.104742,-0.602083 -2.104745,-0.602086 -1.818991,-0.955855 -1.818995,-0.955852 -11.468964,11.466692 -11.4689673,11.466692 0.7380128,1.475623 0.7380135,1.475621 0.34482,1.455208 0.344821,1.455209 0.02238,1.852083 0.02236,1.852083 -0.208917,1.399376 -0.208921,1.399376 10.792253,5.27127 10.79225,5.2712693 2.049307,1.0273267 2.049306,1.0273268 0.783045,-1.215681 0.783045,-1.215681 1.665565,-1.6279044 1.665565,-1.6279018 1.477359,-0.9317725 1.477359,-0.9317701 1.584307,-0.64376 1.584303,-0.643763 1.436254,-0.367247 1.436251,-0.367247 2.910416,0.01389 2.910417,0.01389 1.977702,0.605917 1.977699,0.605915 1.329592,0.667395 1.32959,0.667393 1.594175,1.1299402 1.594175,1.1299401 1.713116,1.8335254 1.713116,1.8335253 0.887574,1.4952186 0.887577,1.4952185 0.629941,1.55958113 0.629944,1.55958107 0.400711,1.9049179 0.400711,1.9049152 v 2.1830691 2.1830665 l -0.288599,1.569947 -0.2886,1.569948 -0.778195,2.022591 -0.778192,2.022591 -1.00189,1.549284 -1.00189,1.549283 -1.550701,1.674181 -1.550702,1.67418 -1.606137,1.138475 -1.606134,1.138476 -1.414434,0.710387 -1.41443,0.710385 -2.025153,0.542605 -2.02515,0.542605 -3.042708,0.0089 -3.042708,0.0089 -1.719791,-0.452334 -1.719792,-0.452332 -2.38125,-1.157697 -2.38125,-1.157695 -1.395251,-1.233649 -1.395253,-1.233646 -0.38553,0.147942 -0.38553,0.147941 -6.421299,3.80374 -6.421302,3.80374 -7.540625,4.458242 -7.5406242,4.45824 -0.1072911,0.07972 -0.1072912,0.07972 0.4628995,1.392013 0.462902,1.392015 0.136199,2.248958 0.1362,2.248958 -0.448649,1.719792 -0.448646,1.719791 -0.5988316,1.254631 -0.5988314,1.25463 11.4911,11.445369 11.491099,11.445369 0.17707,-0.04478 0.177069,-0.04478 1.5875,-0.957017 1.5875,-0.957016 1.719792,-0.542642 1.719791,-0.542642 2.132507,-0.143362 2.132505,-0.143364 2.209588,0.44772 2.209588,0.44772 1.741437,0.789606 1.74144,0.789604 1.916904,1.468231 1.916906,1.468231 1.233852,1.628079 1.233855,1.62808 0.85294,1.852083 0.852943,1.852083 0.349615,1.455208 0.349618,1.455209 -0.01754,2.381249 -0.01754,2.38125 -0.42749,1.785943 -0.42749,1.78594 -0.828754,1.653643 -0.828752,1.653641 -1.170778,1.650823 -1.170782,1.65081 -1.625253,1.31506 -1.625253,1.31505 -1.47225,0.78184 -1.47225,0.78183 -1.69654,0.56904 -1.696543,0.56903 -2.669082,0.11236 -2.669085,0.11236 -1.5875,-0.36683 z M 10.658386,30.369669 15.474247,27.491656 24.337788,22.187798 33.201329,16.883942 33.69923,16.521653 34.197128,16.159367 33.511267,14.172246 32.825406,12.185125 32.537132,10.327163 32.248861,8.4691977 32.503125,6.9016685 32.757392,5.334142 32.943162,4.6015029 33.128931,3.8688637 19.996899,-2.6083926 6.8648644,-9.0856489 h -0.113067 -0.113067 l -1.7999498,1.3648504 -1.7999497,1.3648477 -1.3229165,0.5863034 -1.32291659,0.5863035 -1.47161501,0.3287791 -1.4716124,0.3287765 -2.8940123,-0.1172606 -2.8940097,-0.1172634 -1.5701273,-0.5722857 -1.5701271,-0.5722858 -0.96831,-0.640797 -0.968311,-0.640797 -9.566249,9.5689415 -9.566249,9.5689443 v 0.285165 0.285165 l 9.643115,9.447398 9.643114,9.447394 1.800114,-0.896739 1.8001139,-0.896741 1.3097773,-0.321506 1.3097774,-0.321509 2.1298057,0.01106 2.1298057,0.01106 1.5212059,0.399581 1.52120592,0.399582 1.78608558,0.92048 1.7860855,0.92048 0.9260416,0.795594 0.9260416,0.795597 0.078931,0.0071 0.07893,0.0071 4.8158609,-2.878013 z"
           id="path3257" />
        <path
           style="fill:#e7b83a;fill-opacity:1;stroke-width:0.264583"
           d="m 38.115173,107.97845 -1.700737,-0.36883 -1.871138,-0.89494 -1.871136,-0.89494 -1.644618,-1.24438 -1.644618,-1.24438 -1.19807,-1.50571 -1.198071,-1.50572 -0.916945,-1.852079 -0.916945,-1.852083 -0.458653,-1.719792 -0.458652,-1.719792 0.0038,-2.778125 0.0038,-2.778124 0.463672,-1.700901 0.463674,-1.7009 0.623054,-1.229543 0.623057,-1.229539 L 14.70181,70.046052 2.9869739,58.333435 l -1.3586803,0.688494 -1.35867768,0.688493 -1.51524222,0.394671 -1.5152421,0.394671 -2.5240984,-0.0031 -2.5240984,-0.0031 -1.4552082,-0.386752 -1.4552086,-0.386752 -1.88373,-0.930426 -1.883731,-0.930428 -1.75009,-1.855187 -1.750089,-1.855187 -0.700621,-1.382609 -0.700621,-1.382609 -0.513313,-1.461154 -0.513313,-1.461156 -0.142951,-2.513541 -0.142951,-2.513542 0.446541,-1.719791 0.446541,-1.719792 0.648542,-1.456396 0.648541,-1.456396 -10.061134,-10.048282 -10.061147,-10.048295 0.0014,-4.767181 0.0014,-4.7671824 6.022428,-6.0854164 6.022428,-6.0854164 3.89977,-3.9815344 3.89977,-3.9815314 -0.532621,-1.102397 -0.53262,-1.102397 -0.395192,-1.87868 -0.395193,-1.878679 0.0039,-1.768641 0.0039,-1.768639 0.39896,-1.692511 0.398959,-1.692507 0.972908,-1.879368 0.972908,-1.879364 1.865367,-1.852083 1.865368,-1.852083 1.5875,-0.83466 1.5875,-0.83466 1.42685,-0.419071 1.4268475,-0.419071 2.0144924,-0.168002 2.0144897,-0.168003 2.0856891,0.431329 2.0856891,0.431329 1.5999988,0.813062 1.5999988,0.813062 5.8326651,-5.908074 5.8326625,-5.908074 5.667237,-5.730729 5.66724,-5.730732 -0.692246,-1.677601 -0.692245,-1.677604 -0.314915,-1.190625 -0.314912,-1.190625 -0.01043,-2.645833 -0.01042,-2.645833 0.584255,-2.066216 0.584256,-2.066213 0.630306,-1.243846 0.630304,-1.243846 1.079682,-1.452441 1.079685,-1.452438 1.659954,-1.405504 1.659953,-1.405503 1.852083,-0.895972 1.852083,-0.895972 1.5875,-0.427064 1.5875,-0.427064 2.006653,-0.150532 2.00665,-0.150532 1.829808,0.317889 1.829805,0.317887 1.966828,0.786701 1.966828,0.786702 1.608738,1.147971 1.608735,1.147969 1.097092,1.190204 1.097092,1.190204 0.939609,1.420683 0.939607,1.420683 0.665385,1.775492 0.665385,1.775494 0.311459,2.339327 0.31146,2.339326 -0.468178,2.600201 -0.468175,2.6002 -1.185307,2.367767 -1.185309,2.367764 -2.026007,2.050664 -2.026007,2.050663 -2.248159,1.102178 -2.248159,1.10218 -1.710489,0.428085 -1.710492,0.428088 -2.522841,0.01273 -2.522844,0.01273 -2.104742,-0.585825 -2.104744,-0.585824 -1.818992,-0.955855 -1.818995,-0.955852 -11.469334,11.467062 -11.4693378,11.467065 0.6192176,1.221967 0.6192172,1.221968 0.430641,1.481357 0.430642,1.481354 0.05571,1.946929 0.05571,1.946925 -0.218287,1.52785 -0.218289,1.52785 11.066205,5.407776 11.066203,5.4077785 1.783283,0.8968792 1.783284,0.8968819 0.798147,-1.2438088 0.79815,-1.2438062 1.659699,-1.5937256 1.659697,-1.5937229 1.447411,-0.913003 1.447411,-0.9130001 1.719792,-0.699373 1.719791,-0.699371 1.190625,-0.31886 1.190625,-0.31886 2.910416,-0.0021 2.910417,-0.0021 1.719791,0.452911 1.719792,0.452909 1.691603,0.788685 1.691603,0.788686 1.6453,1.1740623 1.645301,1.174062 1.690179,1.8337661 1.69018,1.8337662 0.887574,1.4786106 0.887576,1.478608 0.648534,1.60561334 0.648536,1.60561066 0.382119,1.9971569 0.382119,1.9971543 V 8.1179951 10.19409 l -0.380169,1.803234 -0.380167,1.803236 -0.75511,1.852083 -0.75511,1.852083 -1.165323,1.719792 -1.165323,1.719791 -1.337421,1.421032 -1.337418,1.421035 -1.628159,1.16369 -1.628155,1.163691 -1.719617,0.779711 -1.719617,0.779711 -1.811602,0.387125 -1.811599,0.387122 -1.382557,0.159296 -1.382556,0.159295 -2.216917,-0.275485 -2.216917,-0.275484 -1.922621,-0.653925 -1.922622,-0.653926 -1.625994,-0.909307 -1.625994,-0.909309 -1.257035,-1.106488 -1.257038,-1.10649 -0.435192,0.167 -0.435192,0.166997 -2.139889,1.277255 -2.139892,1.277255 -11.773957,6.965894 -11.7739575,6.965894 -0.1072912,0.08011 -0.1072911,0.08011 0.4610178,1.392012 0.461021,1.392015 0.136583,2.116667 0.136583,2.116667 -0.429035,1.823354 -0.429035,1.823355 -0.6417232,1.277639 -0.6417203,1.277638 11.5152055,11.451089 11.515206,11.45109 0.08698,0.08563 0.08698,0.08563 1.08486,-0.785868 1.084858,-0.785868 1.688563,-0.675976 1.688562,-0.675979 1.791351,-0.311952 1.791351,-0.311949 2.0637,0.172106 2.063699,0.172107 1.796658,0.546314 1.796659,0.546314 1.455208,0.806686 1.455208,0.806685 1.197832,0.956807 1.197832,0.956808 1.109454,1.211731 1.109453,1.21173 0.94324,1.566394 0.943239,1.566394 0.67463,2.116667 0.674629,2.116667 -0.0029,2.778124 -0.0029,2.778125 -0.424892,1.5875 -0.424892,1.5875 -0.879691,1.852083 -0.879695,1.852084 -1.090014,1.455212 -1.090018,1.45521 -1.659953,1.40699 -1.659953,1.40699 -2.116667,1.02291 -2.116666,1.02291 -2.039366,0.41437 -2.039389,0.41462 -1.664801,-0.021 -1.6648,-0.021 z m -27.961146,-77.282388 4.261886,-2.55162 4.233333,-2.567033 4.233333,-2.56703 5.291667,-3.123781 5.291666,-3.123779 0.357145,-0.326248 0.357145,-0.326244 -0.68427,-1.982512 -0.684271,-1.982513 -0.270068,-1.904229 -0.270068,-1.9042304 0.300535,-1.7659323 0.300535,-1.7659349 0.03208,-0.474308 0.03207,-0.4743079 -0.661458,-0.3798702 -0.661458,-0.3798676 -8.202083,-4.06134865 -8.202083,-4.06134865 -4.255981,-2.052103 -4.2559813,-2.0521056 -1.8075988,1.3681657 -1.8075962,1.3681656 -1.3906896,0.6150293 -1.39068956,0.6150292 -1.44478624,0.3233287 -1.4447863,0.3233288 -2.8749041,-0.1376257 -2.8749015,-0.137623 -1.5871638,-0.567473 -1.5871616,-0.567473 -0.951275,-0.6295231 -0.951275,-0.6295231 -9.566249,9.5689415 -9.566249,9.5689443 v 0.281054 0.281056 l 5.490104,5.388972 5.490104,5.388975 4.150092,4.098041 4.150092,4.098041 1.56,-0.831472 1.560002,-0.831471 1.5553896,-0.405127 1.5553927,-0.405128 h 2.1377802 2.1377803 l 1.5126254,0.393989 1.51262285,0.393988 1.51952575,0.769863 1.5195285,0.769861 1.1906249,0.939205 1.1906249,0.939204 0.1037378,0.01363 0.1037352,0.0136 4.2618899,-2.55162 z"
           id="path3255" />
        <path
           style="fill:#e7b83a;fill-opacity:1;stroke-width:0.264583"
           d="m 38.228412,107.97641 -1.852083,-0.40589 -1.852084,-0.87539 -1.852083,-0.87539 -1.601351,-1.21186 -1.601351,-1.21185 -1.279802,-1.62898 -1.279803,-1.62899 -0.866132,-1.761336 -0.866132,-1.761336 -0.468175,-1.719792 -0.468175,-1.719792 0.0074,-2.778125 0.0074,-2.778124 0.457216,-1.700901 0.457216,-1.7009 0.659757,-1.301972 0.659759,-1.30197 -0.09439,-0.03983 -0.09439,-0.03984 -11.657157,-11.600349 -11.65716,-11.600346 -1.3586697,0.688491 -1.35866969,0.688488 -1.51524221,0.394671 -1.5152422,0.394671 -2.5240983,-0.0031 -2.5240984,-0.0031 -1.3939148,-0.371065 -1.3939147,-0.371067 -1.744958,-0.816565 -1.744958,-0.816565 -1.917514,-1.918081 -1.91754,-1.918068 -0.848622,-1.681816 -0.848621,-1.681818 -0.511138,-1.998528 -0.511137,-1.998527 v -1.767435 -1.767435 l 0.530057,-2.072503 0.530056,-2.072502 0.528277,-0.895361 0.528277,-0.895363 v -0.198186 -0.198186 l -10.054166,-10.031378 -10.054166,-10.031375 0.0013,-4.770416 0.0013,-4.7704184 7.085257,-7.14374967 7.085258,-7.14374963 2.83599,-2.9255507 2.835991,-2.9255506 -0.54686,-1.131869 -0.546859,-1.131869 -0.379817,-1.985126 -0.379818,-1.985127 0.0039,-1.63037 0.0039,-1.63037 0.39896,-1.692511 0.398959,-1.692507 0.972908,-1.879368 0.972908,-1.879364 1.891377,-1.883939 1.891377,-1.883939 1.980148,-0.978644 1.980146,-0.97864 2.4917613,-0.421079 2.4917584,-0.421077 2.2489582,0.317373 2.24895812,0.317376 1.98437488,0.941485 1.9843748,0.941483 11.4443133,-11.601241 11.44431,-11.60124 -0.125674,-0.396875 -0.125672,-0.396875 -0.835236,-2.38125 -0.835237,-2.38125 -0.0083,-2.778125 -0.0083,-2.778124 0.456549,-1.719792 0.456549,-1.719792 0.911413,-1.860497 0.911413,-1.860497 1.253773,-1.506619 1.25377,-1.506619 1.558795,-1.201299 1.558796,-1.201301 1.616204,-0.767955 1.616205,-0.767956 1.719791,-0.443225 1.719792,-0.443227 1.852083,-0.138689 1.852083,-0.13869 2.222063,0.421034 2.222061,0.421037 2.408147,1.174417 2.408145,1.174416 1.639689,1.488133 1.639686,1.488133 1.16931,1.776368 1.16931,1.77637 0.678075,1.719791 0.678074,1.719792 0.319079,2.28469 0.319082,2.284688 -0.435329,2.576695 -0.435332,2.576695 -1.028459,2.150075 -1.02846,2.150073 -1.228063,1.529395 -1.228063,1.529395 -1.643468,1.210839 -1.643464,1.210841 -1.233318,0.625774 -1.233318,0.625777 -1.936364,0.536593 -1.936363,0.536594 H 42.108391 39.36314 l -1.625692,-0.412266 -1.62569,-0.412263 -2.207646,-1.083119 -2.207646,-1.08312 -11.465636,11.463361 -11.4656335,11.463363 0.6192176,1.221968 0.6192179,1.221967 0.429688,1.478082 0.429691,1.478081 0.04711,1.950202 0.0471,1.950201 -0.209206,1.531678 -0.209204,1.531675 11.331265,5.545855 11.331264,5.545854 1.495312,0.7800498 1.495308,0.7800472 0.72598,-1.0970286 0.725979,-1.0970312 1.218295,-1.3073988 1.218293,-1.3073962 1.333878,-0.9889595 1.333875,-0.9889595 1.438302,-0.7288422 1.438301,-0.728843 1.402908,-0.482671 1.402911,-0.482671 2.06978,-0.283393 2.069782,-0.283393 2.276242,0.258644 2.276242,0.258643 1.878563,0.653302 1.87856,0.653298 1.857742,1.1036644 1.85774,1.1036617 1.834296,1.7303829 1.834295,1.7303802 1.222883,1.8394785 1.222883,1.8394785 0.737613,1.76399813 0.737613,1.76399547 0.418108,2.0393659 0.418105,2.0393659 v 2.1417385 2.1417359 l -0.425709,1.871702 -0.425709,1.871702 -0.751136,1.821519 -0.751134,1.821521 -1.373767,1.987224 -1.373767,1.987225 -1.610714,1.491236 -1.610715,1.491237 -1.427487,0.913154 -1.427488,0.913154 -1.356498,0.591716 -1.3565,0.591717 -1.321493,0.325472 -1.321496,0.325469 -1.902375,0.213342 -1.902372,0.213344 -2.224532,-0.225478 -2.224529,-0.225478 -2.136008,-0.755872 -2.13601,-0.755875 -1.507469,-0.905743 -1.507469,-0.905745 -1.16533,-1.018728 -1.165334,-1.018728 -0.41207,0.158126 -0.41207,0.158128 -3.882805,2.290559 -3.882802,2.290561 -8.466666,5.035539 -8.466666,5.035542 -1.659996,0.942832 -1.6599985,0.942835 0.1067779,0.529166 0.1067805,0.529167 0.4287391,1.576943 0.428738,1.576943 -0.0039,1.598057 -0.0039,1.598057 -0.391076,1.658715 -0.391075,1.658712 -0.696063,1.373616 -0.6960631,1.373614 4.8613611,4.717602 4.861361,4.717603 6.800823,6.788052 6.800821,6.788052 0.47522,-0.4122 0.475219,-0.4122 1.190624,-0.678386 1.190625,-0.678386 1.852084,-0.608486 1.852083,-0.608487 2.910416,0.01064 2.910417,0.01064 1.556967,0.463516 1.556969,0.463515 2.014905,0.973196 2.014908,0.973193 2.409894,2.382498 2.409896,2.382499 0.959564,1.984375 0.959567,1.984375 0.400852,1.576943 0.400852,1.576943 v 2.666947 2.666947 l -0.399505,1.576943 -0.399505,1.576943 -1.042527,2.116667 -1.04253,2.116671 -1.042001,1.24987 -1.042,1.24987 -1.55086,1.33773 -1.550863,1.33774 -1.852084,0.9251 -1.852083,0.92511 -1.455208,0.39264 -1.455208,0.39264 -2.38125,0.12603 -2.38125,0.12602 -1.852083,-0.4059 z M 19.674004,25.002232 33.465912,16.756783 33.898442,16.389862 34.330972,16.02294 33.855061,15.03792 33.379153,14.052901 32.931581,12.339353 32.484009,10.625808 32.631086,7.8476836 32.778159,5.0695587 32.934258,4.4081004 33.090357,3.7466421 30.896885,2.6970797 28.703412,1.64752 20.633621,-2.3315194 12.56383,-6.3105589 9.6409757,-7.7281513 6.7181239,-9.1457438 5.0092305,-7.8522859 3.3003398,-6.5588306 2.0258446,-5.9597478 0.75135209,-5.360665 -0.87799958,-4.9432425 -2.5073539,-4.5258226 -5.4228027,-4.6509838 -8.3382516,-4.7761423 -10.14254,-5.470737 l -1.804287,-0.6945947 -0.727022,-0.5176864 -0.727021,-0.5176837 -9.708635,9.7112953 -9.708634,9.7112925 6.154527,6.076275 6.154528,6.076273 3.62121,3.556404 3.621211,3.556407 1.559716,-0.83132 1.559716,-0.831321 1.5553896,-0.405127 1.5553927,-0.405128 h 1.8926729 1.8926729 l 1.4251754,0.268603 1.42517537,0.268605 1.85208323,0.881803 1.8520832,0.881803 1.1495113,0.966261 1.1495139,0.966258 h 0.139827 0.139827 z"
           id="path3253" />
        <path
           style="fill:#e7b83a;fill-opacity:1;stroke-width:0.264583"
           d="m 38.492995,108.01527 -1.5875,-0.36812 -1.49379,-0.56364 -1.493789,-0.56364 -1.548919,-1.00897 -1.548918,-1.00897 -1.342893,-1.33279 -1.342895,-1.33279 -0.926991,-1.41985 -0.926995,-1.419863 -0.69751,-1.719791 -0.69751,-1.719792 -0.314915,-1.190625 -0.314913,-1.190625 -0.0094,-2.645833 -0.0094,-2.645833 0.454223,-1.719792 0.454224,-1.719791 0.661789,-1.363813 0.661791,-1.363814 -11.67033,-11.600769 -11.6703496,-11.60077 -0.090011,-0.08954 -0.090011,-0.08954 -1.717315,0.8196 -1.7173124,0.819597 -1.3822097,0.262131 -1.3822097,0.26213 h -2.1572562 -2.1572563 l -1.576943,-0.402595 -1.5769421,-0.402595 -1.719792,-0.829718 -1.719791,-0.829717 -1.88394,-1.902553 -1.883939,-1.902549 -0.963762,-1.958364 -0.963763,-1.958367 -0.38885,-1.852083 -0.388849,-1.852083 -0.0046,-1.611323 -0.0046,-1.61132 0.530057,-2.072503 0.530055,-2.072502 0.528277,-0.895361 0.528277,-0.895363 V 37.246013 37.041259 L -28.578875,27.019547 -38.633041,16.997835 V 12.250596 7.5033575 l 7.882899,-7.96377541 7.882898,-7.96377269 1.97283,-2.0773024 1.97283,-2.077304 -0.05688,-0.303945 -0.05688,-0.303948 -0.685342,-1.942873 -0.685342,-1.942869 -0.153905,-2.180844 -0.153904,-2.180842 0.460259,-2.093994 0.46026,-2.093994 0.963229,-1.846012 0.96323,-1.846011 1.909098,-1.909098 1.909099,-1.909098 1.929164,-0.926494 1.929164,-0.926492 1.3229168,-0.309935 1.3229166,-0.309936 2.3812498,-0.02869 2.3812498,-0.02869 1.4552083,0.354298 1.45520819,0.354296 1.43604711,0.763325 1.4360471,0.763326 h 0.1727332 0.1727306 l 6.6031475,-6.680729 6.603148,-6.680729 4.752657,-4.851217 4.752654,-4.85122 -0.04285,-0.440447 -0.04285,-0.440449 -0.843505,-2.354286 -0.843505,-2.354286 0.0011,-2.805089 0.0011,-2.805088 0.437964,-1.686034 0.437968,-1.686036 0.788596,-1.669068 0.788598,-1.669071 1.167448,-1.503439 1.167444,-1.503442 1.004883,-0.848132 1.004882,-0.848136 1.196586,-0.813059 1.196586,-0.813062 1.052372,-0.451919 1.052372,-0.451918 1.719792,-0.509871 1.719791,-0.509871 1.995995,-0.160252 1.995998,-0.160253 2.233123,0.452487 2.233123,0.452491 1.916745,0.885589 1.916745,0.88559 1.560337,1.200652 1.560335,1.200653 1.052587,1.266592 1.052587,1.266592 0.658248,1.058334 0.658252,1.058333 0.690203,1.732248 0.690205,1.732246 0.300979,2.368796 0.30098,2.368793 -0.397185,2.248958 -0.397184,2.248958 -0.56088,1.49379 -0.56088,1.49379 -1.082357,1.674616 -1.082357,1.674617 -1.509504,1.461802 -1.509506,1.461801 -1.478097,0.878626 -1.478098,0.878623 -1.940615,0.703882 -1.940613,0.703881 -3.704166,0.005 -3.704167,0.005 -1.927923,-0.631608 -1.927926,-0.631608 -1.416973,-0.853261 -1.416976,-0.853257 -11.551067,11.553306 -11.5510648,11.553303 0.7851298,1.492557 0.78513,1.492557 0.309792,1.492266 0.309793,1.492265 -0.125066,2.689448 -0.125066,2.689447 -0.09681,0.442147 -0.09681,0.442148 7.276041,3.61828 7.276041,3.6182805 1.719792,0.8020658 1.719792,0.8020632 3.907739,1.9371335 3.907742,1.9371336 0.688538,-1.0907183 0.688539,-1.0907156 1.224555,-1.3140901 1.224552,-1.3140901 1.421117,-1.0534094 1.421117,-1.0534068 1.886174,-0.8704893 1.886175,-0.87049 1.719792,-0.455782 1.719791,-0.455782 2.778125,0.009 2.778125,0.009 1.719791,0.438653 1.719792,0.43865 2.138529,1.048882 2.138532,1.0488798 1.760884,1.4524592 1.760886,1.4524593 1.452459,1.7608866 1.45246,1.7608841 1.080648,2.18147091 1.080648,2.18146829 0.539724,2.602894 0.539723,2.602894 -0.136932,2.6458332 -0.136933,2.6458336 -0.577874,1.852083 -0.577871,1.852083 -1.039235,2.007907 -1.039233,2.007907 -1.448951,1.756629 -1.448951,1.756633 -1.65259,1.316921 -1.65259,1.316924 -1.852083,0.94085 -1.852083,0.940853 -2.226657,0.556043 -2.226656,0.556046 -3.329593,-0.11447 -3.329594,-0.114466 -2.31807,-0.810996 -2.318072,-0.810995 -1.482138,-0.890395 -1.48214,-0.890391 -1.175686,-1.02784 -1.175687,-1.027843 -0.651576,0.296878 -0.651576,0.296879 -8.792318,5.209113 -8.792318,5.209111 -5.027083,2.986083 -5.0270827,2.986082 0.1100243,0.340976 0.110027,0.340976 0.4700344,1.719792 0.470035,1.719792 0.01066,1.455208 0.01066,1.455208 -0.371877,1.754471 -0.37188,1.75447 -0.7138062,1.408631 -0.7138061,1.408631 11.6074653,11.4477 11.607466,11.447698 0.07022,0.0074 0.07022,0.0074 1.384991,-0.911754 1.384993,-0.911751 2.0379,-0.678056 2.0379,-0.678053 1.930849,-0.149579 1.93085,-0.149577 2.248958,0.405251 2.248958,0.405252 2.513542,1.240835 2.513541,1.240832 2.277679,2.276113 2.277676,2.276112 0.944205,1.984375 0.944206,1.984375 0.416139,1.62569 0.416137,1.625692 v 2.499172 2.499172 l -0.525365,2.054159 -0.525365,2.054159 -0.995989,1.890768 -0.996109,1.89074 -2.381249,2.38336 -2.38125,2.38337 -1.322917,0.70554 -1.322916,0.70555 -2.052537,0.68862 -2.052537,0.68862 -2.44538,0.1221 -2.445379,0.12209 z m -25.647,-78.909232 6.861585,-4.141642 7.143749,-4.233738 7.14375,-4.233738 0.204568,-0.176792 0.204567,-0.176789 L 33.757938,14.681987 33.111659,13.220635 32.792997,11.600917 32.474338,9.9811988 32.63004,7.6576704 32.785742,5.334142 32.948845,4.5326794 33.111945,3.7312142 29.849347,2.1643095 26.586746,0.59740737 16.634812,-4.3154683 6.6828787,-9.2283467 5.2775418,-8.079084 3.8722049,-6.9298214 2.3328645,-6.152764 l -1.53933783,0.7770547 -1.5126228,0.3939884 -1.51262547,0.3939884 h -2.3536141 -2.3536167 l -1.6256925,-0.4180972 -1.6256901,-0.4180999 -1.631248,-0.8623987 -1.631248,-0.8623988 -9.686515,9.6891682 -9.686514,9.6891679 8.275054,8.205089 8.275055,8.205086 1.506195,1.40195 1.506194,1.40195 1.680803,-0.827457 1.6808026,-0.827456 1.4432094,-0.384071 1.443212,-0.38407 1.9052063,-0.0031 1.9052062,-0.0031 1.4020852,0.28842 1.40208517,0.28842 2.11666653,1.012671 2.1166665,1.012672 0.777105,0.815575 0.777105,0.815575 h 0.2988098 0.2988098 l 6.8615845,-4.141644 z"
           id="path3251" />
        <path
           style="fill:#e7b83a;fill-opacity:1;stroke-width:0.264583"
           d="m 38.587274,107.98949 -1.757807,-0.35014 -1.551699,-0.62675 -1.551699,-0.62676 -1.516666,-1.00671 -1.516665,-1.0067 -1.685618,-1.82063 -1.685618,-1.82062 -0.936586,-1.793312 -0.936585,-1.793314 -0.578413,-1.852083 -0.578416,-1.852083 -0.0021,-2.810833 -0.0021,-2.810835 0.56895,-2.073844 0.568952,-2.073841 0.57563,-1.024197 0.57563,-1.024197 L 14.679915,69.896375 2.7833996,58.170111 2.117327,58.636042 l -0.6660727,0.465929 -1.58749985,0.602572 -1.58749985,0.602573 -2.7814321,0.127722 -2.7814295,0.12772 -1.6867133,-0.432115 -1.6867107,-0.432115 -1.749565,-0.834093 -1.749488,-0.834091 -1.740527,-1.749441 -1.740526,-1.749441 -0.735386,-1.254842 -0.735386,-1.254839 -0.628365,-1.806866 -0.628365,-1.806864 -0.162656,-2.222272 -0.162656,-2.222272 0.401417,-1.884601 0.401416,-1.8846 0.780032,-1.542608 0.780032,-1.542606 -10.151494,-10.112044 -10.151493,-10.112041 0.0063,-4.584707 0.0063,-4.5847081 2.134439,-2.2489582 2.134438,-2.2489583 7.810985,-7.8422072 7.810985,-7.8422072 -0.667768,-1.682792 -0.667767,-1.682793 -0.264954,-1.719791 -0.264953,-1.719792 0.09389,-1.984375 0.09389,-1.984375 0.551467,-1.774285 0.551466,-1.774285 1.336574,-1.998345 1.336574,-1.998342 1.472163,-1.199216 1.472164,-1.199216 1.086834,-0.627322 1.086835,-0.627322 1.8520829,-0.56983 1.8520832,-0.569828 2.6458331,0.0016 2.6458332,0.0016 1.58749984,0.42586 1.58749988,0.425863 1.36045568,0.766805 1.3604556,0.766802 1.6786092,-1.772055 1.6786118,-1.772054 9.7985496,-9.983888 9.798552,-9.983888 -0.604391,-1.36948 -0.604387,-1.369481 -0.420272,-1.611214 -0.42027,-1.611215 0.121031,-3.175 0.121034,-3.175 0.733287,-1.984374 0.733288,-1.984375 1.125127,-1.719792 1.12513,-1.719792 1.421135,-1.37356 1.421135,-1.37356 1.571562,-0.941319 1.571558,-0.941319 1.470771,-0.550283 1.470769,-0.550286 0.661836,-0.09585 0.661837,-0.09585 1.5875,-0.306303 1.5875,-0.306303 1.5875,0.173861 1.5875,0.17386 1.587499,0.400741 1.5875,0.400737 1.852084,0.88904 1.852083,0.889042 1.751925,1.450711 1.751928,1.45071 1.369509,2.047589 1.36951,2.047589 -0.141843,0.369639 -0.141843,0.369639 0.227645,-0.140695 0.227647,-0.140692 0.420846,1.119137 0.420847,1.11914 0.300984,1.322916 0.300982,1.322917 0.0011,2.38125 0.0011,2.38125 -0.555937,2.089888 -0.55594,2.089888 -0.947084,1.693548 -0.947084,1.693544 -0.971902,1.090835 -0.971899,1.090832 -0.926041,0.890942 -0.926042,0.89094 -1.508657,0.926965 -1.508656,0.926962 -1.930927,0.681691 -1.930926,0.681694 -3.055427,0.13132 -3.055429,0.131321 -2.103945,-0.576884 -2.103948,-0.576887 -1.5875,-0.805212 -1.5875,-0.805214 -0.184052,-0.29459 -0.18405,-0.294592 -0.212825,0.188155 -0.212823,0.188159 -11.456907,11.445845 -11.456905,11.445848 0.7747396,1.592366 0.7747374,1.592365 0.329771,1.473565 0.329769,1.473563 -0.12509,2.622613 -0.125087,2.622611 -0.200276,0.462962 -0.200279,0.462963 5.386098,2.611938 5.386096,2.611937 7.640047,3.7489419 7.640047,3.7489419 0.03812,-0.076967 0.03812,-0.076967 1.007412,-1.504299 1.007411,-1.5042991 1.285724,-1.2026449 1.285725,-1.202645 1.617016,-1.0451279 1.617017,-1.0451279 1.77314,-0.670224 1.773139,-0.670224 1.190625,-0.267589 1.190625,-0.267591 2.76122,-0.0065 2.761221,-0.0065 1.736696,0.422222 1.736696,0.422224 1.918229,0.932217 1.918229,0.9322197 v 0.1684708 0.1684708 l 0.727604,0.3262391 0.727604,0.3262392 1.658347,1.4834631 1.658348,1.4834632 1.177141,1.6496135 1.177139,1.6496161 0.767676,1.56620626 0.767675,1.5662089 0.422841,1.32291664 0.422839,1.3229166 0.20733,1.3229166 0.20733,1.3229166 -0.03206,2.6458332 -0.03206,2.6458337 -0.43987,1.719791 -0.439867,1.719792 -1.163521,2.38125 -1.163521,2.38125 -1.483188,1.773584 -1.483188,1.773584 -2.082122,1.568923 -2.08212,1.568927 -1.469475,0.695174 -1.469471,0.695171 -1.664142,0.460235 -1.664134,0.460084 -3.836458,-0.006 -3.836458,-0.006 -2.116667,-0.736854 -2.116666,-0.736854 -1.719792,-1.016455 -1.719791,-1.016452 -1.201555,-1.058813 -1.201558,-1.058814 -2.105733,1.261946 -2.105737,1.261946 -10.186458,6.029025 -10.186457,6.029026 -2.145694,1.270183 -2.1456941,1.270182 0.4954901,1.467691 0.495491,1.467689 0.156162,1.917435 0.156163,1.917436 -0.43542,1.852083 -0.435419,1.852083 -0.6643294,1.45184 -0.664329,1.45184 11.6449364,11.589721 11.644936,11.58972 0.532307,-0.532307 0.532307,-0.532307 1.542878,-0.778844 1.542878,-0.77884 1.441376,-0.405157 1.441376,-0.405154 1.459219,-0.169333 1.459219,-0.169333 2.044909,0.284419 2.044912,0.284422 1.50555,0.529158 1.505551,0.529159 0.149693,0.20133 0.149696,0.201332 0.374864,0.08086 0.374864,0.08086 1.180907,0.692057 1.180907,0.692057 1.883812,1.830591 1.883812,1.830589 -0.396875,-0.20823 -0.396875,-0.208232 0.80809,0.814419 0.808091,0.814419 0.825053,1.685097 0.825052,1.685099 0.417378,1.62569 0.417377,1.625693 -0.0039,2.475349 -0.0039,2.475351 -0.394769,1.674543 -0.394769,1.674545 -0.669009,1.462603 -0.66901,1.462604 -1.017175,1.493064 -1.017174,1.49306 -1.553157,1.46827 -1.553157,1.46827 -1.5875,0.94729 -1.5875,0.9473 -1.5875,0.55367 -1.5875,0.55367 -1.852083,0.26667 -1.852083,0.26667 -0.926042,-0.0196 -0.926041,-0.0196 -1.757805,-0.35013 z M 20.126614,24.769115 34.259662,16.290545 34.2105,15.97172 34.161335,15.652892 33.447632,13.800808 32.733929,11.948725 32.617134,9.1706002 32.500339,6.3924753 32.894536,5.1242322 33.288736,3.8559917 19.912055,-2.7471216 6.5353735,-9.3502323 H 6.2643582 5.9933455 l 0.1652773,0.1652799 0.1652799,0.1652773 -1.2456609,1.0440035 -1.2456609,1.044006 -1.5186368,0.7775284 -1.51863678,0.7775284 -1.65636298,0.3905276 -1.65636294,0.3905276 -1.9843749,-7.937e-4 -1.9843749,-7.938e-4 -1.8166687,-0.384892 -1.8166659,-0.3848893 -1.685682,-0.9265682 -1.685683,-0.9265681 -9.655369,9.7015983 -9.655369,9.7015984 0.45772,0.544142 0.45772,0.544362 0.213134,0.15699 0.213135,0.156991 9.088061,9.05661 9.088061,9.056613 1.017553,-0.625382 1.017554,-0.625383 1.058333,-0.440965 1.0583335,-0.440968 1.0583333,-0.274423 1.0583332,-0.274426 1.9949317,-0.0016 1.9949318,-0.0016 1.576943,0.402596 1.57694299,0.402595 1.59579991,0.776131 1.5957972,0.776132 1.0500359,0.926925 1.0500333,0.926928 0.2867421,0.01101 0.2867396,0.01101 14.1330515,-8.478567 z"
           id="path3249" />
        <path
           style="fill:#e7b83a;fill-opacity:1;stroke-width:0.264583"
           d="m 41.667995,108.12476 -0.163521,-0.26458 h 0.412488 0.412491 v 0.26458 0.26459 h -0.248968 -0.24897 z m 2.447395,-0.43981 0.33073,-0.13345 0.330729,0.13345 0.330729,0.13345 H 44.44612 43.784661 Z m -6.068879,-0.27009 0.347265,-0.13897 0.159854,0.15985 0.15985,0.15986 -0.507116,-0.0209 -0.507119,-0.0209 0.347266,-0.13896 z m 13.807941,-2.82958 v -0.0999 l 0.463021,-0.36313 0.463021,-0.36312 -0.363125,0.46302 -0.363127,0.46302 h -0.09989 -0.0999 z m 2.129864,-1.89841 1.177428,-1.33685 0.119525,0.0894 0.119528,0.0894 -1.296953,1.24748 -1.296953,1.24749 z M 27.248204,99.922679 26.965002,99.393512 h 0.132292 0.132291 l 0.283202,0.529167 0.283203,0.529171 h -0.132292 -0.132292 z m -6.38375,-34.065102 -0.363124,-0.463021 0.46302,0.363124 0.463021,0.363128 v 0.09989 0.0999 h -0.0999 -0.09989 z m -4.233333,-4.233334 -0.363124,-0.46302 0.46302,0.363124 0.463021,0.363128 v 0.09989 0.0999 h -0.0999 -0.09989 z m -23.4429835,-1.307832 0.4680558,-0.121971 0.3256942,0.131774 0.3256941,0.131775 -0.79375,-0.0098 -0.7937499,-0.0098 0.4680558,-0.12197 z m 4.8897563,-0.521042 0.3307292,-0.133453 0.3307291,0.133453 0.33072914,0.133454 H -1.591377 -2.2528353 Z M 0.92216444,58.912264 1.0856849,58.647681 h 0.1166786 0.1166759 v 0.264583 0.264584 H 1.0388404 0.75864401 Z M 12.274109,57.258619 11.77008,56.663306 l 0.595313,0.504029 0.595312,0.504028 v 0.09128 0.09128 h -0.09128 -0.09128 z m -27.623818,-0.463021 -0.283202,-0.529167 h 0.132292 0.132291 l 0.283202,0.529167 0.283201,0.529166 h -0.132291 -0.132292 z m -3.630574,-5.093229 -0.255785,-0.330729 -0.189102,-0.330729 -0.189102,-0.33073 h 0.237728 0.237729 l 0.301381,0.661459 0.30138,0.661458 h -0.09422 -0.09422 z m 30.282932,-13.195852 0.326321,-0.328766 0.148111,0.148113 0.148114,0.148111 -0.474432,0.180655 -0.474433,0.180653 z m 10.918472,-6.421152 v -0.103984 l 0.410618,-0.15757 0.410617,-0.157567 -0.16165,0.261551 -0.161647,0.261554 h -0.24897 -0.248968 z m -9.260416,-2.766263 v -0.243036 l 0.529167,-0.13838 0.529166,-0.13838 v 0.09821 0.09821 l -0.529166,0.283203 -0.529167,0.283202 z m -16.4537746,-0.220909 0.3472656,-0.138964 0.1598533,0.15985 0.1598506,0.159853 -0.5071162,-0.02088 -0.5071189,-0.02088 0.3472656,-0.138964 z M 64.819035,23.88737 v -0.09989 l 0.463021,-0.363128 0.46302,-0.363125 -0.363124,0.463021 -0.363128,0.463021 h -0.09989 -0.0999 z M 23.544038,22.928933 v -0.264584 h 0.280199 0.280196 l -0.16352,0.264584 -0.163521,0.264583 h -0.116678 -0.116676 z m -56.125412,-0.463021 -0.363126,-0.463021 0.463021,0.363125 0.463021,0.363127 v 0.09989 0.0999 h -0.09989 -0.0999 z m 99.781659,-0.992187 0.621408,-0.661459 h 0.132292 0.132291 l -0.621408,0.661459 -0.621408,0.661458 H 66.711168 66.578876 Z M 26.983621,20.832269 v -0.227971 l 0.396875,-0.152296 0.396875,-0.152294 v 0.227972 0.227971 l -0.396875,0.152297 -0.396875,0.152294 z m -62.140245,-0.822555 -0.624624,-0.520364 h 0.252888 0.252888 l 0.478889,0.529166 0.478889,0.529167 -0.107153,-0.0088 -0.107153,-0.0088 z M 72.269143,11.022683 v -0.661458 l 0.133453,0.330729 0.133453,0.330729 -0.133453,0.33073 -0.133453,0.330729 z m -39.708384,-3.3293388 0.02088,-0.5071189 0.138964,0.3472656 0.138965,0.3472656 -0.159851,0.1598533 -0.159853,0.1598506 0.0209,-0.5071162 z m -70.929217,0.071549 V 7.682102 l 0.859896,-0.777105 0.859896,-0.777105 -0.777105,0.8598958 -0.777106,0.8598958 h -0.08279 -0.08279 z m 61.069136,-9.358365 0.347266,-0.1389644 0.159853,0.1598506 0.159851,0.1598533 -0.507116,-0.020902 -0.507119,-0.020876 0.347265,-0.1389644 z m -10.269139,-5.1109269 -0.396875,-0.2564791 0.315113,-0.00405 0.315116,-0.00405 0.163521,0.2645833 0.16352,0.2645833 -0.08176,-0.00405 -0.08176,-0.00406 z m -25.001251,-0.2615538 -0.161648,-0.2615512 0.410617,0.1575673 0.410617,0.15757 v 0.1039838 0.1039839 h -0.248968 -0.248969 z m -7.277914,-8.4853115 v -0.280197 l 0.264584,0.163521 0.264583,0.16352 v 0.116679 0.116676 h -0.264583 -0.264584 z m 3.96875,-15.413008 v -0.08279 l 0.859896,-0.777105 0.859896,-0.777105 -0.777106,0.859896 -0.777105,0.859896 h -0.08279 -0.08279 z m 51.738696,-18.329213 -0.510673,-0.373412 0.249008,0.0186 0.249007,0.0186 0.511603,0.200346 0.511607,0.200345 -0.249939,0.154471 -0.249941,0.154472 -0.510672,-0.373414 z m 16.788382,-2.858646 v -0.103984 l 0.410618,-0.15757 0.410617,-0.157567 -0.16165,0.261551 -0.161647,0.261554 H 52.89717 52.648202 Z M 27.248204,-74.422113 v -0.248971 l 0.261554,-0.161647 0.261551,-0.16165 -0.157567,0.410618 -0.15757,0.410617 h -0.103984 -0.103984 z m 26.424581,-3.389053 -0.363124,-0.463021 0.46302,0.363125 0.463021,0.363127 v 0.09989 0.0999 h -0.0999 -0.09989 z"
           id="path3247" />
      </g>
      <path
         style="fill:#1d8f9f;fill-opacity:1;stroke-width:0.264583"
         d="M 88.752482,241.73809 C 81.5525,240.88189 76.613481,234.45811 68.98228,237.52817 55.459827,237.07522 41.668062,229.34335 36.049734,216.66136 34.909785,208.13483 26.14622,207.2648 21.209808,201.05018 17.387381,196.71648 14.44448,191.63765 14.006859,185.68091 12.71174,179.01717 15.288331,172.5075 8.6811838,168.1898 4.8913437,156.40616 5.3894232,133.77325 13.237162,125.85955 c 2.210163,-6.0077 -2.188229,-14.00273 1.091863,-20.6146 0.712694,-4.85876 5.301396,-9.926003 6.501223,-12.709262 4.002991,-4.583008 8.277204,-8.916044 14.775295,-11.158242 3.284238,-3.662801 2.407428,-11.418427 6.914848,-15.32401 5.253807,-8.633326 15.605833,-12.767167 25.326418,-13.47288 5.941726,0.243872 9.860819,-9.717938 17.492909,-9.248103 6.726425,-1.997907 15.133092,-0.799576 19.999352,3.237803 6.34671,2.96956 9.03425,11.13754 8.35132,17.875143 0.6412,50.631951 0.4894,101.271161 0.68424,151.905521 0.28858,7.42898 -2.70766,13.7562 -7.49006,18.4102 -4.34713,4.58495 -9.90616,7.26102 -16.897802,7.01222 l -1.234326,-0.0353 c 0.208281,0.0307 0.208413,0.0307 4e-5,10e-5 z M 78.303019,223.15245 c 4.549033,-8.20376 -2.601089,-18.12127 3.049974,-26.0311 2.52725,-7.22265 11.255508,-11.66022 13.439752,-17.8501 -5.250942,-5.52117 -11.096178,6.13227 -14.733269,9.88154 -5.211154,6.26855 -8.294538,14.57187 -5.959723,22.68839 1.858467,3.46749 -3.057178,14.34366 4.203266,11.31127 z m -31.13999,-15.90311 c 1.434939,-6.32508 3.995748,-13.90805 11.29077,-15.97789 8.48334,-2.4544 9.985698,-11.54562 9.513569,-19.13228 -3.229774,-6.80779 6.930255,-4.69531 9.342669,-10.64649 1.819376,-3.55562 13.627839,-10.0078 5.656778,-12.03383 -8.281258,3.19285 -11.517328,14.31051 -21.30983,14.60286 -7.751891,-1.54937 -17.746927,-5.17359 -23.993693,1.80438 -3.092435,2.76135 -9.817851,14.28693 -1.725329,12.94539 2.491986,-7.32032 9.2568,-14.83764 17.754193,-10.81016 6.136449,0.63396 11.48388,2.44622 9.064591,9.76556 -1.369986,9.07024 -12.731086,8.7302 -16.535024,16.00679 -1.60779,2.68154 -6.030884,16.9444 0.941306,13.47567 z m -14.54887,-59.5368 c 2.870325,-7.67785 10.519943,-12.95535 18.776105,-9.88639 6.586616,0.92701 10.935791,-7.37098 16.184239,-0.29037 3.402802,2.91439 15.593466,5.76224 11.487977,-1.87183 -8.398647,-1.23571 -16.281517,-6.83373 -17.439561,-15.77523 -1.199501,-9.21956 -9.977194,-15.91021 -18.667323,-17.3741 -8.007703,5.56602 7.010511,6.24921 9.395481,11.11142 2.977174,4.12982 7.182563,12.27457 5.114285,16.54954 -5.806921,4.3566 -13.433379,-1.04843 -19.549225,2.85775 -5.274083,1.54334 -14.046467,15.13297 -5.301978,14.67919 l 0.09413,-0.0826 z m 43.15027,-34.15148 C 80.405734,107.11977 85.811377,98.396497 81.996716,90.352233 79.571763,82.64093 65.385419,85.5063 68.096615,75.843638 c 3.554683,-3.00265 2.605142,-11.574446 -2.672948,-6.263748 -4.436303,5.454447 -4.297209,16.827815 3.46147,19.160177 10.798327,0.147579 10.325913,12.423313 4.569734,18.495973 -2.375829,2.15056 -2.330746,9.50729 2.309558,6.32502 z"
         id="path5898"
         sodipodi:nodetypes="czszzccsscccczccczccczczzzzzzzzzzzzzzzzzcccczzzcczzzzzzzzz" />
    </g>
  </g>
</svg>
